<?xml version="1.0" encoding="UTF-8" standalone="no"?>
<!-- Created with Inkscape (http://www.inkscape.org/) -->

<svg
   width="30.302717"
   height="30.302717"
   viewBox="0 0 30.302717 30.302717"
   version="1.1"
   id="svg1"
   xmlns="http://www.w3.org/2000/svg"
   xmlns:svg="http://www.w3.org/2000/svg">
  <defs
     id="defs1" />
  <g
     id="layer1"
     transform="translate(-0.84864141,-0.84864141)">
    <g
       id="g1">
      <path
         id="path1"
         style="fill:#ffffff"
         d="M 31.151359,16 A 15.151359,15.151359 0 0 1 16,31.151359 15.151359,15.151359 0 0 1 0.8486414,16 15.151359,15.151359 0 0 1 16,0.8486414 15.151359,15.151359 0 0 1 31.151359,16 Z" />
      <path
         d="m 5.9066943,19.473328 q -0.8266646,0 -1.4533296,-0.173333 -0.6266651,-0.173333 -0.8933311,-0.386666 -0.666665,-0.519998 -0.666665,-1.199997 0,-0.573332 0.4933321,-1.146663 0.5066654,-0.586666 1.5333294,-1.066664 1.0266641,-0.493332 2.5866602,-0.773332 0.666665,-0.119999 1.3466633,-0.186666 0.6933316,-0.06667 1.3866634,-0.06667 0.586665,0 1.17333,0.05333 0.599999,0.05333 1.173331,0.173333 0.186666,0.04 0.426665,0.106666 0.24,0.05333 0.493332,0.133333 1.106664,-1.13333 2.159995,-2.253328 1.053331,-1.119997 2.039995,-1.893328 0.693331,-0.546665 1.29333,-0.746665 0.599998,-0.199999 1.066664,-0.199999 0.546665,0 0.893331,0.173332 0.359999,0.16 0.466665,0.266666 0.04,0.04 0,0.08 -0.04,0.04 -0.08,0 -0.06667,-0.08 -0.32,-0.173333 -0.253332,-0.09333 -0.653331,-0.09333 -0.493332,0 -1.159997,0.226666 -0.666665,0.226666 -1.479997,0.853332 -0.999997,0.786664 -1.986661,1.813328 -0.973331,1.013331 -1.986662,2.039995 0.519999,0.186666 0.946664,0.506665 0.439999,0.32 0.506666,0.786665 v 0.05333 q 0,0.05333 -0.02667,0.05333 -0.04,0 -0.08,-0.08 -0.05333,-0.146656 -0.306662,-0.253322 -0.239999,-0.106666 -0.559998,-0.173333 -0.319999,-0.06667 -0.613332,-0.106666 -0.293332,-0.04 -0.439999,-0.05333 l -0.146666,-0.01333 q -1.106664,1.066664 -2.293328,1.973329 -1.1733303,0.893331 -2.4933269,1.346663 -0.6266651,0.213333 -1.2266636,0.306666 -0.5866652,0.09333 -1.1199972,0.09333 z M 16.213335,20.12666 q -0.599998,-0.426666 -0.879998,-1.026664 -0.279999,-0.599999 -0.279999,-1.293331 0,-0.693331 0.24,-1.386663 0.239999,-0.706665 0.693331,-1.466663 Q 16.453335,14.193341 17,13.473343 q 0.546665,-0.733331 1.053331,-1.33333 0.519998,-0.613332 0.866664,-1.013331 0.359999,-0.399999 0.426666,-0.493332 0.08,-0.106666 0.119999,-0.106666 0.05333,0 0.08,0.09333 0.02667,0.08 0.02667,0.186666 0,0.213333 -0.06667,0.306666 -0.346666,0.439999 -0.826664,1.119997 -0.479999,0.679998 -0.973331,1.519996 -0.493332,0.826665 -0.919998,1.706663 -0.426665,0.879997 -0.693331,1.719995 -0.253333,0.839998 -0.253333,1.53333 0,0.399999 0.106666,0.733331 0.106667,0.333333 0.346666,0.586665 0.01333,0.01333 0.01333,0.04 0,0.02667 -0.02667,0.05333 -0.02667,0.02667 -0.06667,0 z M 5.9466942,19.246662 q 0.4933321,0 1.066664,-0.09333 0.5733319,-0.08 1.1866638,-0.266666 1.1466637,-0.359999 2.279994,-1.226664 1.133331,-0.866664 2.226661,-1.933328 -0.173332,-0.01333 -0.346665,-0.01333 -0.173333,0 -0.359999,0 -0.933331,0 -1.946662,0.09333 -0.9999979,0.09333 -1.9066623,0.266666 -1.466663,0.253333 -2.399994,0.639999 -0.9199977,0.373332 -1.3599965,0.786665 -0.4266656,0.413332 -0.4266656,0.786664 0,0.359999 0.3599991,0.626665 0.1866663,0.133333 0.6133317,0.226666 0.4266656,0.106667 1.0133308,0.106667 z m 16.5866338,2.906659 q -0.653331,0 -1.21333,-0.199999 -0.546665,-0.186667 -0.919997,-0.613332 -0.36,-0.426666 -0.466666,-1.119997 v -0.04 q 0,-0.06667 0.04,-0.06667 0.06667,0 0.09333,0.09333 0.146666,0.759998 0.733332,1.239997 0.586665,0.479999 1.346663,0.479999 0.533332,0 1.026664,-0.226666 0.493332,-0.213333 0.933331,-0.559999 0.439999,-0.346665 0.813331,-0.746664 0.386666,-0.386666 0.706665,-0.719999 0.746665,-0.826664 1.346663,-1.719995 0.613332,-0.893331 0.959998,-1.639996 -0.453332,0.466665 -1.119997,0.946664 -0.653332,0.479999 -1.439997,0.919998 -0.786664,0.439999 -1.653329,0.773331 -0.853331,0.346666 -1.706662,0.533332 -0.426666,0.09333 -0.826665,0.133333 -0.399999,0.05333 -0.759998,0.05333 -1.066664,0 -1.813329,-0.346665 -0.746664,-0.346666 -1.146663,-0.946665 -0.386666,-0.599998 -0.386666,-1.359996 0,-0.746665 0.386666,-1.599996 0.386665,-0.853331 1.199997,-1.733329 0.599998,-0.653332 1.346663,-1.21333 0.746665,-0.573332 1.519996,-1.026664 0.786665,-0.466666 1.533329,-0.786665 0.759999,-0.319999 1.386664,-0.466666 0.346665,-0.08 0.706665,-0.119999 0.359999,-0.05333 0.693331,-0.05333 0.573332,0 1.039997,0.146667 0.479999,0.146666 0.773332,0.466665 0.293332,0.319999 0.293332,0.839998 0,0.293333 -0.106666,0.573332 -0.09333,0.279999 -0.16,0.426666 -0.04,0.08 -0.08,0.08 -0.02667,0 -0.04,-0.05333 -0.01333,-0.05333 0.01333,-0.106666 0.12,-0.266666 0.12,-0.453332 0,-0.333333 -0.293333,-0.479999 -0.279999,-0.16 -0.773331,-0.16 -0.559999,0 -1.319997,0.173333 -0.759998,0.173333 -1.613329,0.479999 -0.839998,0.306666 -1.679996,0.706665 -0.839998,0.399999 -1.586663,0.879998 -0.733331,0.466665 -1.266663,0.959997 -0.879998,0.813331 -1.29333,1.53333 -0.399999,0.706664 -0.399999,1.266663 0,0.839998 0.786665,1.319997 0.786664,0.466665 2.119994,0.466665 0.346666,0 0.706665,-0.04 0.373333,-0.02667 0.773331,-0.09333 1.159998,-0.213333 2.359995,-0.666665 1.199996,-0.466665 2.239994,-1.13333 1.039997,-0.666665 1.719996,-1.45333 0.05333,-0.146666 0.09333,-0.279999 0.04,-0.146666 0.04,-0.279999 0,-0.173333 -0.16,-0.173333 -0.213333,0 -0.466666,0.213332 -0.106666,0.09333 -0.199999,0.09333 -0.06667,0 -0.06667,-0.06667 0,-0.106666 0.133333,-0.226666 0.439999,-0.319999 0.853332,-0.319999 0.346665,0 0.559998,0.239999 0.133333,0.146666 0.133333,0.453332 0,0.386666 -0.226666,0.933331 -0.213333,0.546666 -0.559998,1.159997 -0.333333,0.599999 -0.733332,1.173331 -0.386666,0.559998 -0.733331,1.01333 -0.346666,0.453333 -0.559999,0.679999 -0.733332,0.773331 -1.719996,1.306663 -0.973331,0.533332 -2.039995,0.533332 z"
         id="text1"
         style="font-size:13.3333px;line-height:0;font-family:Arizonia;-inkscape-font-specification:Arizonia"
         aria-label="AG" />
    </g>
  </g>
</svg>
