<?xml version="1.0" encoding="UTF-8" standalone="no"?>
<!-- Created with Inkscape (http://www.inkscape.org/) -->

<svg
   width="32"
   height="32"
   viewBox="0 0 32 32"
   version="1.1"
   id="svg1"
   xmlns="http://www.w3.org/2000/svg"
   xmlns:svg="http://www.w3.org/2000/svg">
  <defs
     id="defs1" />
  <g
     id="layer1">
    <g
       id="g1">
      <path
         id="path1"
         style="fill:#b3b3b3;stroke-width:1.05601"
         d="M 32,16 A 16,16 0 0 1 16,32 16,16 0 0 1 2e-7,16 16,16 0 0 1 16,2e-7 16,16 0 0 1 32,16 Z" />
      <path
         style="font-size:16px;line-height:0;font-family:Ruthie;-inkscape-font-specification:Ruthie;stroke-width:1.1777"
         d="m 4.5279955,21.848 q -0.736,0 -0.736,-0.464 0,-0.336 0.192,-0.48 -0.048,0.144 -0.048,0.304 0,0.432 0.608,0.432 1.056,0 2.432,-1.04 -0.144,-0.08 -0.256,-0.16 -0.128,-0.08 -0.24,-0.144 -1.088,0.784 -1.728,0.784 -0.112,0 -0.112,-0.064 0,-0.112 0.16,-0.128 0.416,-0.144 0.784,-0.336 0.368,-0.192 0.704,-0.432 -0.48,-0.464 -0.48,-0.96 0,-0.928 1.456,-1.648 0.512,-0.272 1.072,-0.448 0.56,-0.192 1.184,-0.304 1.1199995,-1.472 1.9679995,-2.976 0.864,-1.52 1.44,-3.04 0.064,-0.144 0.192,-0.576 0.144,-0.4479999 0.352,-1.1519999 0.016,-0.112 0.128,-0.112 0.016,0.016 0.016,0.032 0,1.2799999 -1.44,4.0159999 -0.56,1.088 -1.152,2.032 -0.576,0.928 -1.1359995,1.712 0.1759995,-0.032 0.3679995,-0.048 0.192,-0.016 0.4,-0.032 0.608,-0.848 1.152,-1.744 0.56,-0.912 1.088,-1.888 0.672,-1.28 1.008,-2.208 0.352,-0.9439999 0.352,-1.5519999 0,-0.736 -0.656,-0.832 -0.144,-0.032 -0.144,-0.096 0,-0.096 0.176,-0.096 0.576,0 0.912,0.368 0.32,0.4 0.32,0.976 0,0.6719999 -0.32,1.5839999 -0.32,0.896 -0.944,2.048 -0.48,0.864 -1.04,1.712 -0.56,0.832 -1.184,1.664 0.272,-0.032 0.72,-0.064 0.464,-0.032 1.104,-0.048 0.4,-0.016 0.608,-0.016 0.208,-0.016 0.24,-0.016 h -0.016 q 0,0 0,0 0,0 0.016,0 0.096,0 0.096,0.048 0,0.144 -0.288,0.176 -0.144,0 -0.368,0.016 -0.224,0.016 -0.512,0.048 -0.576,0.032 -1.04,0.08 -0.448,0.032 -0.8,0.08 -0.976,1.2 -1.9039995,2.128 -0.928,0.944 -1.824,1.616 0.432,0.208 1.424,0.384 0.144,0.016 0.144,0.096 0,0.08 -0.16,0.08 -0.624,0 -1.568,-0.432 -1.568,1.12 -2.72,1.12 z M 16.559995,20.872 q -0.544,0 -1.168,-0.496 -0.592,-0.48 -0.848,-1.056 -0.176,-0.384 -0.256,-0.896 -0.08,-0.528 -0.08,-1.2 0,-0.416 0.08,-1.488 0.096,-1.072 0.304,-2.784 0.016,-0.112 0.048,-0.496 0.048,-0.384 0.096,-1.04 0.016,-0.288 0.112,-0.288 0.144,0 0.16,0.336 v 2.544 q 0,4.224 0.688,5.76 0.416,0.944 0.96,0.944 0.704,0 1.584,-1.376 -0.016,0.272 -0.336,0.704 -0.16,0.208 -0.32,0.368 -0.144,0.16 -0.272,0.24 -0.4,0.224 -0.752,0.224 z m -9.4079995,-0.4 q 0.768,-0.608 1.568,-1.504 0.816,-0.88 1.6639995,-2 -0.224,0.048 -0.4479995,0.112 -0.208,0.048 -0.416,0.112 -0.72,0.928 -1.424,1.664 -0.704,0.72 -1.376,1.248 0.08,0.112 0.192,0.192 0.128,0.096 0.24,0.176 z m -0.56,-0.576 q 1.216,-0.976 2.512,-2.576 -0.464,0.16 -0.88,0.368 -0.416,0.208 -0.752,0.448 -0.96,0.64 -0.96,1.36 0,0.192 0.08,0.4 z m 14.1120085,3.248 q -0.144,0 -0.144,-0.112 0,-0.064 0.112,-0.096 0.176,-0.032 0.32,-0.096 0.144,-0.048 0.24,-0.112 1.056,-0.656 2.048,-3.2 0.32,-0.832 0.608,-1.776 0.288,-0.944 0.528,-1.984 -0.992,1.344 -2.352,2.384 -1.68,1.344 -2.96,1.344 -0.88,0 -1.376,-0.736 -0.416,-0.656 -0.416,-1.6 0,-1.968 1.424,-4.048 1.344,-1.936 3.2,-2.88 -0.432,-0.048 -0.688,-0.048 -0.624,0 -1.28,0.144 -0.432,0.112 -0.816,0.256 -0.384,0.144 -0.704,0.336 -0.928,0.544 -0.928,1.216 0,0.08 0.016,0.128 v 0.112 q 0,0.224 -0.144,0.224 -0.16,0 -0.304,-0.288 -0.048,-0.128 -0.08,-0.224 -0.032,-0.112 -0.032,-0.224 0,-0.944 1.696,-1.456 1.248,-0.368 2.48,-0.368 0.192,0 0.448,0.032 0.256,0.016 0.56,0.048 0.816,-0.3679999 1.584,-0.5439999 0.768,-0.192 1.488,-0.16 0,-0.064 0,-0.16 0,-0.112 -0.016,-0.224 -0.016,-0.144 -0.016,-0.24 0,-0.112 0,-0.176 0,-0.128 0.08,-0.128 0.144,0 0.176,0.944 1.312,0.112 2.032,0.8479999 0.72,0.72 0.72,2.048 v 0.064 q 0,0.272 -0.224,0.272 -0.112,0 -0.288,-0.096 -0.368,-0.224 -0.96,-0.56 -0.576,-0.336 -1.344,-0.752 -0.08,0.832 -0.224,1.744 -0.144,0.912 -0.368,1.904 0.176,-0.24 0.384,-0.528 0.208,-0.304 0.432,-0.656 0.112,-0.176 0.144,-0.176 0.032,0.032 0.032,0.048 0,0.32 -1.12,1.84 -0.256,1.088 -0.544,2.08 -0.288,0.976 -0.64,1.872 -0.496,1.312 -1.008,2.16 -0.496,0.864 -1.008,1.28 -0.416,0.32 -0.768,0.32 z m 4.496,-12.4 q 0.016,-0.224 0.016,-0.448 0.016,-0.224 0.016,-0.4319999 -0.352,-0.048 -0.768,-0.048 -0.544,0 -1.04,0.096 -0.48,0.08 -0.928,0.2559999 0.8,0.112 1.472,0.256 0.688,0.144 1.232,0.32 z m 2.384,1.024 q 0.112,0 0.112,-0.16 0,-0.176 -0.096,-0.368 -0.592,-1.008 -2.128,-1.3279999 -0.016,0.3999999 -0.048,0.9119999 0.416,0.128 0.896,0.352 0.496,0.208 1.056,0.528 0.128,0.064 0.208,0.064 z m -8.016,6.992 q 1.104,0 2.736,-1.312 0.592,-0.48 1.152,-1.024 0.576,-0.56 1.088,-1.2 0.24,-1.072 0.4,-2.08 0.16,-1.024 0.24,-1.984 -0.736,-0.336 -1.472,-0.56 -0.72,-0.224 -1.472,-0.336 -1.776,0.832 -2.992,2.608 -1.28,1.856 -1.28,3.76 0,0.448 0.096,0.8 0.096,0.352 0.256,0.64 0.416,0.688 1.248,0.688 z m 1.344,5.04 q -0.784,0 -1.6,-0.56 -0.928,-0.624 -0.928,-1.312 0,-0.064 0.048,-0.064 0.048,0 0.064,0.096 0.656,1.488 2.048,1.488 0.656,0 1.264,-0.32 1.328,-0.72 2.304,-3.44 0.016,0 1.344,-4.592 0.656,-2.32 1.312,-2.32 0.272,0 0.48,0.176 h -0.032 q -0.224,0.048 -0.56,1.44 -0.448,1.84 -0.832,3.104 -0.368,1.264 -0.64,1.952 -1.216,3.088 -3.04,4.064 -0.544,0.288 -1.232,0.288 z"
         id="text1"
         aria-label="AG" />
    </g>
  </g>
</svg>
