<?xml version="1.0" encoding="UTF-8" standalone="no"?>
<!-- Created with Inkscape (http://www.inkscape.org/) -->

<svg
   width="531.85278"
   height="100"
   viewBox="0 0 531.85278 100"
   version="1.1"
   id="svg1"
   xmlns="http://www.w3.org/2000/svg"
   xmlns:svg="http://www.w3.org/2000/svg">
  <defs
     id="defs1" />
  <g
     id="layer1"
     transform="translate(-968.73597,-721.39203)">
    <path
       d="m 993.22137,799.61519 q -6.71723,0 -11.80932,-1.40846 -5.09209,-1.40845 -7.25894,-3.14192 -5.41712,-4.22536 -5.41712,-9.75082 0,-4.65872 4.00867,-9.31744 4.11701,-4.76706 12.45937,-8.66739 8.34237,-4.00867 21.01847,-6.28386 5.4171,-0.97508 10.9425,-1.51679 5.6338,-0.54171 11.2676,-0.54171 4.7671,0 9.5342,0.43337 4.8754,0.43337 9.5341,1.40845 1.5168,0.32503 3.4669,0.86674 1.9502,0.43337 4.0087,1.08342 8.9924,-9.2091 17.5515,-18.30986 8.559,-9.10076 16.5764,-15.38461 5.6338,-4.44204 10.5092,-6.06717 4.8754,-1.62514 8.6674,-1.62514 4.442,0 7.2589,1.40845 2.9252,1.30011 3.792,2.16685 0.325,0.32503 0,0.65005 -0.325,0.32503 -0.6501,0 -0.5417,-0.65005 -2.6002,-1.40845 -2.0585,-0.7584 -5.3088,-0.7584 -4.0086,0 -9.4258,1.84183 -5.4171,1.84182 -12.026,6.93391 -8.1256,6.3922 -16.143,14.73456 -7.909,8.23402 -16.143,16.57638 4.2254,1.51679 7.6923,4.11701 3.5753,2.60022 4.117,6.3922 v 0.43337 q 0,0.43337 -0.2166,0.43337 -0.3251,0 -0.6501,-0.65006 -0.4334,-1.19176 -2.4919,-2.0585 -1.9501,-0.86674 -4.5504,-1.40845 -2.6002,-0.54171 -4.9837,-0.86674 -2.3835,-0.32503 -3.5753,-0.43337 l -1.1918,-0.10834 q -8.9924,8.66739 -18.6349,16.03467 -9.5341,7.25893 -20.26,10.94257 -5.0921,1.73348 -9.9675,2.49188 -4.76704,0.7584 -9.10073,0.7584 z m 83.74863,5.30877 q -4.8754,-3.46695 -7.1506,-8.34236 -2.2752,-4.87541 -2.2752,-10.50921 0,-5.6338 1.9502,-11.26761 1.9502,-5.74214 5.6338,-11.91766 3.792,-6.17551 8.234,-12.026 4.4421,-5.95883 8.5591,-10.83423 4.2253,-4.98375 7.0422,-8.23402 2.9253,-3.25027 3.467,-4.00867 0.65,-0.86674 0.9751,-0.86674 0.4333,0 0.65,0.7584 0.2167,0.65005 0.2167,1.51679 0,1.73348 -0.5417,2.49187 -2.8169,3.5753 -6.7172,9.10076 -3.9004,5.52546 -7.909,12.35103 -4.0087,6.71723 -7.4757,13.86782 -3.4669,7.1506 -5.6338,13.97617 -2.0585,6.82557 -2.0585,12.45937 0,3.25027 0.8668,5.95883 0.8667,2.70856 2.8169,4.76706 0.1083,0.10835 0.1083,0.32503 0,0.21669 -0.2167,0.43337 -0.2167,0.21669 -0.5417,0 z m -83.4236,-7.15059 q 4.00866,0 8.6674,-0.7584 4.6587,-0.65006 9.6425,-2.16685 9.3174,-2.92524 18.5265,-9.9675 9.2091,-7.04225 18.0932,-15.70964 -1.4085,-0.10834 -2.8169,-0.10834 -1.4085,0 -2.9253,0 -7.5839,0 -15.818,0.7584 -8.1256,0.75839 -15.4929,2.16684 -11.91767,2.05851 -19.50164,5.20044 -7.47563,3.03358 -11.05093,6.3922 -3.46695,3.35861 -3.46695,6.3922 0,2.92524 2.92524,5.09209 1.5168,1.08342 4.98375,1.84182 3.46696,0.86674 8.23403,0.86674 z m 89.1658,-1.95017 q -1.0834,0 -2.6002,-0.54171 -1.5168,-0.43337 -3.0336,-1.73348 1.1918,-1.62513 3.467,-4.33369 2.1668,-2.8169 4.6587,-6.17552 2.4919,-3.35861 4.6587,-6.71722 -1.7335,1.73348 -3.792,3.68364 -2.0585,1.95016 -4.117,3.5753 -0.4333,0.43337 -0.9751,0.43337 -0.4333,0 -0.4333,-0.43337 0,-0.54172 0.8667,-1.30011 3.0336,-2.70856 6.7172,-6.17552 3.792,-3.5753 5.5255,-7.25894 0.5417,-1.3001 0.5417,-2.38353 0,-1.40845 -0.5417,-1.73348 -0.4334,-0.32502 -0.4334,-0.86673 0,-0.97509 0.9751,-0.97509 0.5417,0 0.8667,0.21669 1.1918,0.54171 2.2752,2.0585 1.0835,1.5168 1.0835,4.55038 0,1.73348 -0.4334,4.00867 -0.4334,2.16685 -1.5168,4.98375 1.6251,-2.16685 3.2503,-4.22535 1.7334,-2.05851 3.1419,-3.68364 2.9252,-3.35862 5.8505,-4.76707 3.0336,-1.51679 5.4171,-1.51679 2.8169,0 4.5504,1.62514 1.7335,1.62513 1.7335,4.22535 0,2.0585 -1.0835,4.22535 -0.325,0.86674 -1.5168,2.70856 -1.1917,1.73348 -2.6002,3.79198 -1.4084,2.05851 -2.6002,3.68364 -1.4084,1.73348 -1.9502,3.03359 -0.5417,1.19176 -0.5417,1.95016 0,1.08342 1.1918,1.08342 1.5168,0 4.2254,-1.62513 1.6251,-0.97508 3.6836,-2.60022 2.1668,-1.73348 4.2253,-3.46695 2.1669,-1.84182 3.467,-3.03359 0.4334,-0.43337 0.7584,-0.43337 0.4334,0 0.4334,0.54171 0,0.65006 -0.5417,1.19177 -3.2503,3.03358 -7.584,6.60888 -4.2254,3.5753 -8.3424,5.52546 -3.3586,1.62514 -6.1755,1.62514 -2.3835,0 -3.792,-1.19177 -1.4084,-1.30011 -1.4084,-3.68364 0,-1.73348 0.8667,-4.11701 1.0834,-2.92524 3.0336,-5.85049 2.0585,-2.92524 4.2254,-5.52546 2.2751,-2.70855 3.9003,-4.55037 1.4084,-1.5168 1.4084,-2.60022 0,-0.97508 -1.3001,-0.97508 -1.3001,0 -3.9003,1.51679 -2.4919,1.40845 -5.6338,4.65872 -4.442,4.65872 -7.8007,10.07584 -3.3586,5.41712 -7.6923,10.18418 -2.3835,2.70856 -4.6587,2.70856 z m 47.5623,8.01734 q -2.3836,-2.16685 -3.2503,-4.00867 -0.7584,-1.73348 -0.7584,-4.87541 0,-3.25027 0.8667,-7.25893 0.9751,-4.00867 2.7086,-8.34237 -1.0834,1.08343 -2.2752,2.16685 -1.1918,1.08342 -2.3835,1.95016 -0.3251,0.32503 -0.6501,0.32503 -0.325,0 -0.325,-0.32503 0,-0.75839 1.3001,-2.0585 1.7335,-1.51679 3.2503,-3.35861 1.5168,-1.84182 3.3586,-4.11701 5.4171,-12.02601 12.1343,-21.66848 6.7172,-9.64247 16.2514,-18.52654 4.8754,-4.44204 9.1007,-6.3922 4.3337,-1.95016 7.584,-1.95016 3.2503,0 5.0921,1.73348 1.8418,1.73347 1.8418,4.55037 0,2.70856 -1.8418,6.17552 -1.7335,3.46695 -5.7422,7.25894 -2.8169,2.70856 -6.7172,5.6338 -3.9003,2.8169 -8.0173,5.30878 -4.117,2.49187 -7.6923,4.11701 -0.2167,0.10834 -0.4334,0.21668 -0.2167,0 -0.4334,0 -0.7584,0 -0.7584,-0.54171 0,-0.65006 1.1918,-1.08343 3.3586,-1.51679 7.3673,-4.117 4.117,-2.60022 7.909,-5.63381 3.792,-3.03358 6.3922,-5.74214 3.2503,-3.46696 4.6587,-5.85049 1.5168,-2.49187 1.5168,-3.79198 0,-1.62514 -1.8418,-1.62514 -1.9502,0 -5.6338,2.05851 -3.5753,1.95016 -8.234,6.06717 -5.7422,5.09209 -11.376,11.70097 -5.5255,6.60889 -10.1842,13.10943 -4.5504,6.3922 -7.5839,11.37595 4.2253,-5.63381 8.234,-8.77573 4.0086,-3.14193 7.3673,-4.55038 2.8169,-1.08343 5.3087,-1.08343 2.8169,0 4.5504,1.40845 1.7335,1.40845 1.7335,3.5753 0,2.16685 -1.5168,4.87541 -1.4085,2.70856 -4.8754,5.30877 -2.7086,1.95017 -7.2589,3.46696 -4.4421,1.40845 -8.3424,1.40845 -2.2752,0 -3.9003,-0.65005 2.1668,2.70856 5.4171,5.30877 3.2503,2.49188 6.6089,4.11701 3.4669,1.51679 6.0671,1.51679 1.8419,0 3.3587,-0.97508 1.5167,-0.97508 1.5167,-2.38353 0,-0.21668 0.2167,-0.21668 0.3251,0 0.3251,0.21668 0,2.05851 -1.7335,3.35861 -1.6252,1.30011 -4.0087,1.84182 -1.0834,0.21669 -2.2752,0.43337 -1.0834,0.10835 -2.2752,0.10835 -4.442,0 -8.3423,-1.5168 -3.792,-1.62513 -6.6089,-3.90032 -2.7086,-2.38353 -3.9003,-4.55038 -1.4085,3.46695 -2.1669,6.93391 -0.65,3.35861 -0.65,6.17552 0,3.79198 1.3001,5.41711 0.325,0.43337 0,0.54172 -0.3251,0.21668 -0.5417,0.10834 z m 9.5341,-23.07693 q 2.7085,0 6.3922,-1.3001 3.792,-1.30011 6.1755,-3.14193 1.9502,-1.5168 2.8169,-3.25027 0.9751,-1.73348 0.9751,-3.14193 0,-1.51679 -0.9751,-2.49188 -0.8667,-1.08342 -2.6002,-1.08342 -1.7335,0 -4.117,1.19177 -2.3836,1.08342 -5.5255,3.90032 -1.7335,1.62514 -3.5753,3.35861 -1.7335,1.73348 -3.2503,3.5753 0.2167,0.54171 0.5418,1.19177 0.325,0.54171 0.7584,0.75839 0.4333,0.21669 1.0834,0.32503 0.65,0.10834 1.3001,0.10834 z m 47.4539,-18.63488 q -1.5168,0 -2.2752,-0.97508 -0.7583,-0.97508 -0.7583,-2.05851 0,-2.16685 2.0585,-4.22535 2.0585,-2.16685 4.3337,-2.16685 1.5167,0 2.2751,0.97508 0.7584,0.97509 0.7584,2.05851 0,2.27519 -2.0585,4.33369 -1.9501,2.05851 -4.3337,2.05851 z m -16.5763,33.2611 q -4.4421,0 -6.0672,-1.84182 -1.5168,-1.95016 -1.5168,-4.33369 0,-1.95016 0.65,-3.68364 0.6501,-1.84182 1.0835,-2.60022 0.65,-1.08342 1.7334,-2.49187 1.1918,-1.40845 2.6003,-3.03359 -2.1669,1.84182 -4.117,3.5753 -1.8419,1.73348 -3.0336,2.60022 -0.3251,0.32502 -0.6501,0.32502 -0.4334,0 -0.4334,-0.54171 0,-0.86674 1.1918,-1.73348 2.8169,-2.38353 5.4171,-5.20043 2.7086,-2.8169 5.0921,-5.20043 2.3836,-2.49188 4.2254,-3.46696 1.9501,-1.08342 3.1419,-1.40845 1.1918,-0.32503 1.9502,-0.32503 1.1917,0 1.7334,0.43337 0.5418,0.32503 0.2167,0.7584 -1.8418,1.84182 -3.6836,4.76706 -1.7335,2.8169 -3.2503,5.95883 -1.5168,3.14193 -2.4919,5.95883 -0.8667,2.8169 -0.8667,4.76707 0,2.70856 2.1668,2.70856 2.0586,0 5.3088,-1.84182 3.3586,-1.95017 6.9339,-4.87541 3.6837,-2.92524 6.8256,-5.74215 0.4334,-0.43337 0.7584,-0.43337 0.5417,0 0.5417,0.54172 0.1084,0.54171 -0.2167,0.75839 -3.5753,3.35862 -8.1256,7.04226 -4.4421,3.57529 -8.9925,6.06717 -4.442,2.49187 -8.1256,2.49187 z m 29.3607,1.73348 q -3.467,0 -5.3088,-2.0585 -1.8418,-2.05851 -1.8418,-5.74215 0,-3.46695 1.8418,-8.12568 l 0.2167,-0.54171 -1.9502,1.84182 q -0.4333,0.43337 -0.9751,0.43337 -0.5417,0 -0.5417,-0.43337 0,-0.54171 0.7584,-1.30011 2.8169,-2.49187 5.7422,-5.20043 3.0336,-2.8169 5.0921,-5.30878 -0.7584,0.32503 -1.6252,0.32503 -0.8667,0 -1.3001,-0.43337 -0.7584,-0.54171 -0.7584,-1.95016 0,-1.19177 1.0835,-2.49187 1.1917,-1.30011 4.767,-2.27519 0.7584,-0.21669 1.5168,-0.32503 0.8667,-0.10834 1.6251,-0.21669 3.467,-4.8754 6.0672,-8.99241 2.6002,-4.22535 4.117,-5.6338 0.6501,-0.7584 2.2752,-1.30011 1.7335,-0.54171 3.5753,-0.86674 1.9502,-0.32503 3.0336,-0.32503 3.5753,0 3.5753,0.65006 0,0.43336 -1.6251,2.0585 -2.7086,2.60022 -6.3922,6.50054 -3.5753,3.79198 -7.3673,8.23402 3.1419,0.43337 5.7421,1.62514 2.7086,1.19176 3.9004,3.03358 0.4333,0.54171 0.4333,1.30011 0,0.86674 -0.5417,0.86674 -0.4334,0 -0.9751,-0.54171 -2.2752,-2.27519 -7.5839,-2.27519 -1.0835,0 -2.2752,0.10834 -1.0835,0.10834 -2.2752,0.32503 -3.6837,4.76706 -6.7172,9.53413 -3.0336,4.76706 -4.3337,8.88407 -0.6501,1.95016 -0.6501,3.5753 0,1.62513 0.7584,2.70856 0.7584,0.97508 2.2752,0.97508 0.9751,0 2.3835,-0.54171 2.0585,-0.7584 4.7671,-2.49188 2.7085,-1.84182 5.4171,-4.11701 2.8169,-2.27519 5.2004,-4.44203 2.4919,-2.16685 4.1171,-3.68365 1.6251,-1.51679 1.8418,-1.73347 0.325,-0.32503 0.5417,-0.32503 0.4334,0 0.4334,0.65005 0,0.7584 -0.6501,1.40845 -1.0834,1.08343 -3.3586,3.25028 -2.1669,2.16684 -5.0921,4.8754 -2.8169,2.60022 -6.0672,4.98375 -3.2502,2.38353 -6.6089,3.90033 -3.2502,1.62513 -6.2838,1.62513 z m 96.9665,24.26869 q -5.3088,0 -9.8592,-1.62514 -4.442,-1.51679 -7.4756,-4.98374 -2.9253,-3.46696 -3.792,-9.10076 v -0.32503 q 0,-0.54171 0.325,-0.54171 0.5417,0 0.7584,0.7584 1.1918,6.17551 5.9588,10.07583 4.7671,3.90033 10.9426,3.90033 4.3337,0 8.3424,-1.84182 4.0087,-1.73348 7.584,-4.55038 3.5752,-2.8169 6.6088,-6.06717 3.142,-3.14193 5.7422,-5.85049 6.0672,-6.71723 10.9426,-13.97616 4.9837,-7.25894 7.8006,-13.32611 -3.6836,3.79198 -9.1007,7.6923 -5.3088,3.90033 -11.701,7.47563 -6.3922,3.57529 -13.4345,6.28385 -6.9339,2.8169 -13.8678,4.3337 -3.467,0.75839 -6.7172,1.08342 -3.2503,0.43337 -6.1755,0.43337 -8.6674,0 -14.7346,-2.8169 -6.0672,-2.8169 -9.3174,-7.69231 -3.142,-4.8754 -3.142,-11.05092 0,-6.06717 3.142,-13.00108 3.1419,-6.93391 9.7508,-14.08451 4.8754,-5.30878 10.9425,-9.85915 6.0672,-4.65873 12.3511,-8.34237 6.3922,-3.79198 12.4593,-6.3922 6.1756,-2.60021 11.2677,-3.79198 2.8169,-0.65005 5.7421,-0.97508 2.9252,-0.43337 5.6338,-0.43337 4.6587,0 8.4507,1.19177 3.9003,1.19176 6.2839,3.79198 2.3835,2.60022 2.3835,6.82557 0,2.38353 -0.8667,4.65872 -0.7584,2.27519 -1.3002,3.46696 -0.325,0.65005 -0.65,0.65005 -0.2167,0 -0.325,-0.43337 -0.1084,-0.43337 0.1083,-0.86674 0.9751,-2.16685 0.9751,-3.68364 0,-2.70856 -2.3835,-3.90032 -2.2752,-1.30011 -6.2839,-1.30011 -4.5504,0 -10.7259,1.40845 -6.1755,1.40845 -13.1094,3.90032 -6.8256,2.49188 -13.6512,5.74215 -6.8255,3.25027 -12.8927,7.15059 -5.9588,3.79199 -10.2925,7.80065 -7.1506,6.60889 -10.5092,12.45938 -3.2503,5.74214 -3.2503,10.29252 0,6.82557 6.3922,10.72589 6.3922,3.79199 17.2264,3.79199 2.8169,0 5.7422,-0.32503 3.0336,-0.21669 6.2838,-0.7584 9.4258,-1.73347 19.1766,-5.41711 9.7508,-3.79199 18.2015,-9.20911 8.4508,-5.41711 13.9762,-11.80931 0.4334,-1.19177 0.7584,-2.27519 0.325,-1.19177 0.325,-2.27519 0,-1.40845 -1.3001,-1.40845 -1.7334,0 -3.792,1.73347 -0.8667,0.7584 -1.6251,0.7584 -0.5417,0 -0.5417,-0.54171 0,-0.86674 1.0834,-1.84182 3.5753,-2.60022 6.9339,-2.60022 2.8169,0 4.5504,1.95017 1.0834,1.19176 1.0834,3.68364 0,3.14192 -1.8418,7.58396 -1.7335,4.44204 -4.5504,9.42579 -2.7085,4.8754 -5.9588,9.53412 -3.1419,4.55038 -5.9588,8.23402 -2.8169,3.68364 -4.5504,5.52546 -5.9588,6.28386 -13.9762,10.61756 -7.909,4.33369 -16.5763,4.33369 z m 62.0802,-25.13543 q -4.2254,0 -6.3922,-2.0585 -2.0585,-2.16685 -2.0585,-5.52546 0,-2.05851 0.5417,-4.00867 0.5417,-1.95016 1.1918,-3.46696 -0.7584,0.7584 -1.5168,1.40845 -0.6501,0.54172 -1.0835,0.86674 -0.4333,0.32503 -0.7584,0.32503 -0.4333,0 -0.4333,-0.54171 0,-0.7584 1.0834,-1.73348 3.792,-3.14193 5.9588,-5.52546 2.1669,-2.49187 4.5504,-4.55038 4.0087,-3.46695 8.5591,-5.41712 4.5503,-1.95016 9.1007,-1.95016 4.7671,0 7.4756,2.27519 2.7086,2.27519 2.7086,6.71723 0,2.49187 -1.5168,5.74214 -1.4085,3.25027 -4.5504,6.71723 -1.3001,1.40845 -2.9252,2.8169 -1.6252,1.30011 -2.8169,1.95016 5.3088,-0.54171 9.9675,-3.68364 4.6587,-3.25027 8.3423,-6.3922 0.5417,-0.32502 0.7584,-0.32502 0.5417,0 0.5417,0.54171 0,0.43337 -0.5417,0.97508 -4.6587,4.44204 -10.0758,7.47562 -5.3088,3.03359 -11.8093,2.92525 -3.792,2.0585 -7.4756,3.25027 -3.5753,1.19176 -6.8256,1.19176 z m 4.8754,-3.03358 q 1.5168,0 3.2503,-0.54172 1.7334,-0.54171 3.4669,-1.40845 -0.65,0 -1.3001,-0.65005 -0.5417,-0.65005 -0.5417,-1.73348 0,-2.16685 1.6251,-4.44204 1.6252,-2.27518 4.0087,-3.90032 2.3835,-1.62514 4.6587,-1.62514 1.3001,0 2.3836,0.7584 1.1917,0.65005 1.3001,1.84182 1.8418,-2.0585 2.4918,-4.44204 0.7584,-2.38353 0.7584,-4.44203 0,-2.8169 -1.8418,-4.22535 -1.7335,-1.5168 -4.7671,-1.5168 -2.9252,0 -6.5005,2.05851 -3.467,2.0585 -6.6089,5.30877 -3.0336,3.25027 -5.0921,7.04226 -1.9501,3.79198 -1.9501,7.25893 0,4.65873 4.6587,4.65873 z m 29.4691,2.60021 q -1.0834,0 -2.6002,-0.54171 -1.5168,-0.43337 -3.0336,-1.73348 1.1918,-1.62513 3.467,-4.33369 2.1668,-2.8169 4.6587,-6.17552 2.4919,-3.35861 4.6587,-6.71722 -1.7335,1.73348 -3.792,3.68364 -2.0585,1.95016 -4.117,3.5753 -0.4334,0.43337 -0.9751,0.43337 -0.4333,0 -0.4333,-0.43337 0,-0.54172 0.8667,-1.30011 3.0336,-2.70856 6.7172,-6.17552 3.792,-3.5753 5.5255,-7.25894 0.5417,-1.3001 0.5417,-2.38353 0,-1.40845 -0.5417,-1.73348 -0.4334,-0.32502 -0.4334,-0.86673 0,-0.97509 0.9751,-0.97509 0.5417,0 0.8667,0.21669 1.1918,0.54171 2.2752,2.0585 1.0835,1.5168 1.0835,4.55038 0,1.73348 -0.4334,4.00867 -0.4334,2.16685 -1.5168,4.98375 1.6251,-2.16685 3.2503,-4.22535 1.7334,-2.05851 3.1419,-3.68364 2.9252,-3.35862 5.8505,-4.76707 3.0336,-1.51679 5.4171,-1.51679 2.8169,0 4.5504,1.62514 1.7335,1.62513 1.7335,4.22535 0,2.0585 -1.0835,4.22535 -0.325,0.86674 -1.5168,2.70856 -1.1917,1.73348 -2.6002,3.79198 -1.4084,2.05851 -2.6002,3.68364 -1.4084,1.73348 -1.9502,3.03359 -0.5417,1.19176 -0.5417,1.95016 0,1.08342 1.1918,1.08342 1.5168,0 4.2253,-1.62513 1.6252,-0.97508 3.6837,-2.60022 2.1668,-1.73348 4.2253,-3.46695 2.1669,-1.84182 3.467,-3.03359 0.4334,-0.43337 0.7584,-0.43337 0.4334,0 0.4334,0.54171 0,0.65006 -0.5418,1.19177 -3.2502,3.03358 -7.5839,6.60888 -4.2254,3.5753 -8.3424,5.52546 -3.3586,1.62514 -6.1755,1.62514 -2.3835,0 -3.792,-1.19177 -1.4084,-1.30011 -1.4084,-3.68364 0,-1.73348 0.8667,-4.11701 1.0834,-2.92524 3.0336,-5.85049 2.0585,-2.92524 4.2254,-5.52546 2.2751,-2.70855 3.9003,-4.55037 1.4084,-1.5168 1.4084,-2.60022 0,-0.97508 -1.3001,-0.97508 -1.3001,0 -3.9003,1.51679 -2.4919,1.40845 -5.6338,4.65872 -4.442,4.65872 -7.8007,10.07584 -3.3586,5.41712 -7.6923,10.18418 -2.3835,2.70856 -4.6587,2.70856 z m 74.1061,8.99242 q -1.7334,-1.51679 -2.6002,-3.90033 -0.7584,-2.27519 -0.7584,-5.20043 0,-2.70856 0.5417,-5.74214 0.6501,-3.03359 1.6252,-6.3922 -2.0585,2.60021 -4.6588,5.30877 -2.4918,2.70856 -4.767,4.65872 -4.5504,3.68364 -9.8592,3.68364 -4.0086,0 -6.8255,-2.49187 -2.8169,-2.60022 -2.8169,-8.01734 0,-1.40845 0.2166,-2.70855 0.3251,-1.30011 0.7584,-2.60022 -0.65,0.54171 -1.3001,1.08342 -0.5417,0.54171 -1.0834,0.97508 -0.4334,0.32503 -0.8667,0.32503 -0.5417,0 -0.5417,-0.54171 0,-0.65006 1.0834,-1.51679 1.4084,-1.19177 3.1419,-3.25028 1.8418,-2.0585 4.0087,-4.44203 3.792,-4.22535 9.2091,-6.82557 5.5254,-2.60022 10.8342,-2.60022 4.5504,0 6.6089,1.62514 2.1668,1.62513 2.1668,3.90032 2.7086,-5.74214 5.6338,-10.94258 3.0336,-5.30877 5.6338,-9.31744 2.7086,-4.00867 4.4421,-5.95883 1.1917,-1.40845 2.9252,-2.0585 1.8418,-0.65006 3.6837,-0.65006 1.8418,0 3.5753,0.54171 1.7334,0.54172 3.0336,1.73348 -1.0835,0.65006 -3.467,3.14193 -2.2752,2.38353 -5.3088,5.95883 -2.9252,3.5753 -6.1755,7.69231 -3.1419,4.11701 -5.9588,8.23402 -3.3586,4.8754 -6.3922,10.50921 -2.9253,5.6338 -4.7671,10.94258 -1.8418,5.20043 -1.8418,9.2091 0,3.25027 1.4084,4.98374 0.3251,0.43337 0,0.54172 -0.325,0.21668 -0.5417,0.10834 z m -17.1181,-11.26761 q 1.9502,0 5.2005,-1.95016 3.2502,-2.0585 8.0173,-6.93391 1.5168,-1.51679 2.3835,-2.60022 0.9751,-1.19176 1.6252,-2.27519 0.5417,-1.51679 1.0834,-2.92524 0.5417,-1.40845 1.1918,-2.8169 -0.6501,0.43337 -0.9751,0.43337 -0.8668,0 -0.8668,-0.97508 0,-0.43337 0.3251,-1.08343 1.0834,-1.84182 1.0834,-3.25027 0,-2.27519 -2.6002,-2.27519 -1.4085,0 -3.792,0.86674 -2.7086,1.08342 -5.6338,3.35861 -2.8169,2.16685 -5.3088,5.20044 -2.3835,2.92524 -3.9003,6.06717 -1.4085,3.14193 -1.4085,5.95883 0,2.0585 0.7584,3.68364 0.8668,1.51679 2.8169,1.51679 z"
       id="text12"
       style="font-size:192px;font-family:Arizonia;-inkscape-font-specification:Arizonia;stroke-width:0.564283"
       aria-label="Ankit Gond" />
  </g>
</svg>