<?xml version="1.0" encoding="UTF-8" standalone="no"?>
<!-- Created with Inkscape (http://www.inkscape.org/) -->

<svg
   width="426.14374"
   height="112.70401"
   viewBox="0 0 426.14374 112.70401"
   version="1.1"
   id="svg1"
   xmlns="http://www.w3.org/2000/svg"
   xmlns:svg="http://www.w3.org/2000/svg">
  <defs
     id="defs1" />
  <g
     id="layer1"
     transform="translate(-555.68005,-306.11618)">
    <path
       style="font-size:96px;line-height:0;font-family:'Mea Culpa';-inkscape-font-specification:'Mea Culpa'"
       d="m 571.71207,404.70819 q -4.224,0 -7.872,-1.152 -3.648,-1.152 -5.856,-3.84 -2.304,-2.688 -2.304,-7.104 0,-1.536 0.288,-3.072 0,-0.576 0.672,-0.576 0.576,0 0.576,0.48 0,0.576 0,1.056 -0.096,0.48 -0.096,0.96 0,4.128 2.4,6.72 2.304,2.592 6.048,3.744 3.744,1.248 7.968,1.248 3.072,0 6.144,-0.672 3.072,-0.576 5.664,-1.632 5.664,-2.4 10.56,-6.624 4.896,-4.128 9.312,-9.024 -0.672,0.096 -1.44,0.096 -0.672,0.096 -1.44,0.096 -2.496,0 -4.896,-0.48 -2.304,-0.48 -4.416,-1.344 -7.008,-3.168 -10.176,-8.64 -3.072,-5.568 -3.072,-12.096 0,-4.512 1.248,-9.216 1.344,-4.8 3.744,-9.216 -0.576,-2.592 -0.576,-5.376 0,-5.664 2.496,-11.424 2.496,-5.856 7.296,-10.656 4.896,-4.896 12.096,-7.872 7.2,-2.976 16.704,-2.976 7.488,0 13.728,2.496 6.24,2.4 10.368,7.104 4.128,4.608 5.184,11.328 4.992,-5.472 9.6,-9.792 4.608,-4.32 8.736,-6.72 3.648,-2.112 7.008,-3.072 3.36,-0.96 6.336,-0.96 5.184,0 8.448,2.688 3.36,2.592 3.36,6.912 0,3.936 -3.36,9.024 -3.36,4.992 -11.232,10.368 -3.648,2.496 -7.584,4.416 -3.84,1.92 -7.872,3.264 l -2.4,3.936 q -0.864,1.344 -2.4,4.128 -1.536,2.688 -3.36,6.144 -1.728,3.456 -3.36,7.2 -1.632,3.648 -2.688,7.008 -1.056,3.36 -1.056,5.856 0,2.784 1.728,3.84 0.672,0.384 1.728,0.384 2.304,0 5.088,-2.112 2.88,-2.208 5.76,-6.048 2.976,-3.936 5.472,-9.12 0.288,-0.48 0.672,-0.48 0.672,0 0.384,0.768 -2.496,5.184 -5.472,9.408 -2.88,4.224 -6.144,6.816 -3.168,2.496 -6.624,2.496 -3.84,0 -5.664,-2.4 -1.728,-2.496 -1.728,-6.432 0.096,-7.392 3.648,-14.784 3.648,-7.392 8.928,-14.4 -2.304,0.48 -4.608,0.96 -2.208,0.384 -4.608,0.768 -0.768,2.016 -1.824,4.032 -1.056,2.016 -2.4,4.224 -7.968,13.056 -17.28,20.16 -9.216,7.008 -17.76,9.024 -5.088,5.28 -11.04,9.984 -5.952,4.8 -12.672,7.488 -3.072,1.248 -6.816,1.92 -3.648,0.768 -7.296,0.768 z m 54.72,-59.424 11.136,-0.48 q 3.264,-4.128 6.432,-8.064 3.168,-3.936 6.24,-7.488 -0.672,-6.912 -4.608,-11.616 -3.84,-4.704 -9.984,-7.104 -6.048,-2.496 -13.344,-2.496 -9.024,0 -15.84,3.072 -6.816,3.072 -11.424,8.064 -4.512,4.992 -6.72,10.848 -2.112,5.76 -1.728,11.232 5.568,-8.928 12.576,-12.864 7.104,-4.032 13.344,-4.032 4.224,0 7.68,1.728 3.456,1.632 5.472,4.704 2.016,3.072 2.016,7.488 0,3.36 -1.248,7.008 z m 23.712,-1.536 q 5.376,-0.576 10.368,-1.728 6.144,-7.584 12.864,-14.304 6.816,-6.816 11.808,-12.384 0.48,-0.48 0.768,-0.48 0.48,0 0.48,0.672 0,0.384 -0.384,0.672 -3.936,3.84 -8.928,10.272 -4.896,6.432 -9.696,13.728 3.264,-1.056 6.336,-2.4 3.168,-1.44 6.048,-3.264 7.776,-4.896 11.136,-9.504 3.456,-4.608 3.456,-8.064 0,-3.264 -2.4,-5.088 -2.4,-1.92 -6.528,-1.92 -2.784,0 -6.24,1.056 -3.456,0.96 -7.296,3.168 -4.416,2.688 -9.408,7.392 -4.896,4.704 -10.08,10.656 -0.096,5.28 -2.304,11.52 z m -56.064,11.424 q 1.536,-3.072 5.856,-5.664 4.416,-2.592 12.096,-3.36 6.336,-0.576 13.152,-0.864 1.248,-3.456 1.248,-6.72 0,-5.76 -3.84,-9.024 -3.744,-3.36 -9.408,-3.36 -4.032,0 -8.64,2.016 -4.608,1.92 -9.12,6.048 -4.512,4.128 -8.256,10.848 0.768,3.072 2.496,5.664 1.728,2.592 4.416,4.416 z m 48.192,-10.656 5.664,-0.48 q 0.96,-2.496 1.44,-4.8 0.576,-2.304 0.768,-4.416 -1.92,2.304 -3.936,4.8 -1.92,2.4 -3.936,4.896 z m -30.912,38.016 q 7.68,-2.304 15.84,-8.928 8.16,-6.624 15.264,-18.432 1.248,-2.016 2.208,-3.936 1.056,-1.92 1.92,-3.744 l -7.392,0.864 q -5.856,7.296 -11.808,14.88 -5.856,7.488 -11.616,14.304 -1.056,1.248 -2.208,2.496 -1.056,1.248 -2.208,2.496 z m -8.832,1.44 q 2.016,0 4.128,-0.288 1.728,-2.016 3.36,-4.032 1.728,-2.016 3.264,-3.936 5.184,-6.24 10.464,-13.152 5.376,-6.912 10.656,-13.728 -2.4,0.192 -4.896,0.384 -2.496,0.192 -4.992,0.384 -1.824,3.36 -5.088,6.72 -3.168,3.264 -7.968,6.336 -2.88,1.824 -5.376,2.592 -2.496,0.768 -4.704,0.768 -3.84,0 -6.048,-2.112 -2.208,-2.112 -2.208,-5.088 0,-1.344 0.384,-2.496 -2.688,-1.536 -4.608,-3.744 -1.92,-2.208 -3.072,-4.896 -1.824,3.936 -2.976,8.064 -1.056,4.128 -1.056,8.064 0,5.856 2.688,10.848 2.784,4.896 9.12,7.584 4.032,1.728 8.928,1.728 z m -1.152,-19.2 q 1.728,0 4.032,-0.768 2.4,-0.768 5.28,-2.496 4.512,-2.784 7.488,-5.76 3.072,-2.976 4.896,-5.952 l -6.528,0.576 q -7.008,0.672 -11.328,2.688 -4.32,2.016 -6.336,4.32 3.456,0.96 7.872,0.864 1.056,0 1.056,0.48 0,0.48 -0.96,0.48 -2.4,0.096 -4.608,-0.096 -2.112,-0.288 -4.032,-0.864 -1.152,1.728 -1.152,3.168 0,1.44 1.056,2.4 1.152,0.96 3.264,0.96 z m 86.30398,18.528 q -4.032,0 -4.032,-4.512 0,-1.728 0.672,-4.128 0.672,-2.4 2.112,-5.28 0.768,-1.632 2.016,-3.84 1.344,-2.304 2.4,-4.512 1.056,-2.208 1.056,-3.456 0,-1.248 -1.344,-1.248 -1.824,0 -3.84,2.016 -1.92,1.92 -3.84,4.992 -1.92,3.072 -3.648,6.432 -1.728,3.36 -2.976,6.336 -1.248,2.88 -1.824,4.416 -0.576,1.44 -1.632,1.824 -1.056,0.384 -2.304,0.384 -1.152,0 -2.208,0.384 1.344,-3.072 2.208,-4.992 0.864,-1.92 1.824,-3.84 0.96,-2.016 2.304,-5.376 0.768,-1.728 1.728,-3.936 0.96,-2.304 1.632,-4.416 0.768,-2.208 0.768,-3.456 0,-1.44 -0.96,-1.44 -1.152,0 -2.304,1.44 -1.152,1.44 -2.112,3.264 -0.864,1.728 -1.44,2.784 -1.44,2.784 -2.88,5.472 -1.44,2.688 -3.264,5.184 h -0.096 q -0.288,0 -0.672,-0.192 -0.288,-0.192 -0.192,-0.288 1.632,-2.592 3.072,-5.184 1.536,-2.592 2.784,-5.184 1.056,-2.016 2.304,-4.224 1.248,-2.304 2.88,-3.84 1.632,-1.536 3.744,-1.536 0.96,0 2.208,0.48 1.344,0.576 1.344,2.592 0,1.056 -0.384,2.592 -0.384,1.536 -1.056,3.456 2.496,-3.552 5.28,-6.048 2.784,-2.592 5.088,-2.592 3.648,0 3.648,3.456 0,2.112 -1.248,5.184 -0.384,1.056 -1.44,3.36 -0.96,2.208 -2.016,4.992 -0.96,2.688 -1.728,5.184 -0.768,2.496 -0.768,4.128 0,1.728 1.056,1.728 0.672,0 1.728,-0.576 1.152,-0.672 2.688,-2.112 2.784,-2.496 5.184,-6.336 2.496,-3.84 5.856,-10.272 0,-0.192 0.192,-0.192 0.288,0 0.576,0.288 0.288,0.288 0.096,0.48 -3.456,6.72 -6.336,11.232 -2.784,4.416 -5.664,6.72 -2.784,2.208 -6.24,2.208 z m 28.89596,0 q -3.84,0 -5.28,-2.688 -1.344,-2.784 -1.344,-6.432 0,-2.784 0.48,-5.568 0.576,-2.784 1.248,-4.896 0.96,0.096 3.936,-0.864 3.072,-0.96 5.76,-2.304 1.632,-0.768 2.304,-1.92 0.768,-1.152 0.768,-2.112 0,-0.864 -0.576,-1.44 -0.48,-0.672 -1.536,-0.672 -1.248,0 -2.784,0.96 -1.728,1.056 -4.224,3.36 -2.496,2.304 -4.896,5.376 -2.4,3.072 -4.032,6.528 l -2.88,9.6 q -0.48,1.536 -1.248,1.92 -0.768,0.384 -1.824,0.384 -0.96,-0.096 -2.016,0.288 2.016,-6.624 4.32,-14.016 2.304,-7.488 4.992,-15.072 2.688,-7.584 5.856,-14.496 3.264,-7.008 7.296,-12.576 2.496,-3.36 4.992,-5.088 2.592,-1.728 4.608,-1.728 1.536,0 2.4,1.056 0.96,0.96 0.96,2.976 0,1.536 -0.672,3.84 -0.672,2.208 -2.304,4.992 -1.92,3.456 -4.608,7.104 -2.592,3.648 -5.472,6.912 -2.784,3.264 -5.376,5.664 -2.496,2.304 -4.224,3.168 -0.192,0.48 -0.768,2.112 -0.576,1.632 -1.248,3.648 -0.576,2.016 -1.152,3.84 1.728,-2.496 3.936,-4.896 2.304,-2.496 4.704,-4.32 2.496,-1.92 4.416,-2.688 2.016,-0.864 3.552,-0.864 1.92,0 2.88,1.056 1.056,1.056 1.056,2.496 0,1.632 -1.344,3.456 -1.248,1.824 -4.032,3.072 -2.784,1.248 -7.104,1.248 -0.768,2.688 -1.344,5.568 -0.48,2.784 -0.48,5.28 0,2.88 0.768,4.8 0.768,1.92 2.4,1.92 1.632,0 4.128,-2.112 2.784,-2.496 5.664,-7.2 2.88,-4.704 5.28,-9.408 0.192,-0.192 0.288,-0.192 0.288,0 0.576,0.288 0.384,0.288 0.192,0.48 -5.568,9.984 -9.504,15.072 -3.84,5.088 -7.488,5.088 z m -4.8,-29.76 q 2.688,-1.632 5.952,-5.184 3.36,-3.648 6.528,-8.16 3.168,-4.512 5.184,-8.544 1.248,-2.496 1.728,-4.416 0.576,-2.016 0.576,-3.456 0,-2.688 -1.536,-2.688 -1.152,0 -2.976,1.728 -1.728,1.728 -3.936,5.664 -1.824,3.264 -3.744,7.2 -1.824,3.84 -3.456,7.584 -1.632,3.648 -2.784,6.432 -1.152,2.784 -1.536,3.84 z m 35.23206,-6.24 q -1.344,0 -2.304,-0.864 -0.864,-0.96 -0.864,-2.208 0,-1.632 1.056,-2.784 1.152,-1.152 2.688,-1.152 1.344,0 2.304,0.96 0.96,0.96 0.96,2.4 0,1.536 -1.152,2.592 -1.152,1.056 -2.688,1.056 z m -10.56,36 q -1.728,0 -2.784,-1.248 -0.96,-1.344 -0.96,-3.456 0,-2.688 1.056,-5.76 1.152,-3.072 2.592,-6.144 1.536,-3.168 2.688,-5.952 0.48,-1.344 0.864,-2.4 0.384,-1.056 0.384,-1.728 0,-0.96 -0.864,-0.96 -1.152,0 -2.304,1.44 -1.152,1.44 -2.112,3.264 -0.864,1.728 -1.44,2.784 -1.44,2.784 -3.168,5.76 -1.632,2.976 -3.36,5.472 0,0.096 -0.192,0.096 -0.192,0 -0.48,-0.288 -0.288,-0.288 -0.192,-0.384 1.824,-2.592 3.36,-5.472 1.632,-2.976 2.976,-5.664 0.96,-2.016 2.112,-4.128 1.248,-2.208 2.88,-3.648 1.632,-1.536 3.744,-1.536 0.96,0 2.208,0.48 1.44,0.576 1.44,2.496 0,0.96 -0.384,2.304 -0.288,1.248 -0.864,2.88 -1.248,3.264 -2.784,6.624 -1.44,3.264 -2.688,6.624 -0.96,2.592 -0.96,4.608 0,2.208 1.44,2.208 1.344,0 4.128,-2.4 2.784,-2.496 5.184,-6.24 2.4,-3.84 5.76,-10.272 0.096,-0.192 0.384,-0.192 0.192,0 0.384,0.288 0.288,0.192 0.192,0.384 -5.088,9.888 -9.12,15.072 -4.032,5.088 -9.12,5.088 z m 16.32006,-0.096 q -2.208,0 -3.168,-1.632 -0.96,-1.632 -0.96,-3.84 0,-2.976 1.248,-5.952 2.016,-5.28 3.744,-9.12 1.824,-3.84 3.648,-7.392 h -2.592 q -0.384,0 -0.384,-0.384 0,-0.288 0.288,-0.672 0.288,-0.384 0.672,-0.384 h 2.784 l 6.912,-13.824 q 1.632,-0.384 3.456,-0.864 1.92,-0.576 3.456,-1.248 -1.536,2.592 -4.224,6.816 -2.688,4.128 -5.472,9.12 h 6.816 q 0.384,0 0.384,0.384 0,0.288 -0.288,0.672 -0.288,0.384 -0.672,0.384 h -7.104 q -2.976,5.28 -5.376,10.944 -2.304,5.664 -3.072,10.656 -0.096,0.384 -0.096,0.864 0,0.384 0,0.672 0,2.592 1.728,2.592 1.056,0 2.4,-0.864 1.344,-0.96 2.592,-2.208 3.072,-3.072 5.28,-6.816 2.304,-3.744 4.224,-7.584 0.192,-0.192 0.288,-0.192 0.672,0 0.672,0.768 -0.096,0 -0.576,0.864 -0.384,0.864 -0.48,0.96 -1.728,3.36 -3.552,6.432 -1.824,3.072 -4.416,5.856 -1.44,1.536 -3.648,3.264 -2.208,1.728 -4.512,1.728 z m 59.3279,35.616 q -10.08,0 -16.416,-3.648 -6.24,-3.552 -9.12,-9.504 -2.88,-5.952 -2.784,-12.96 -2.016,-2.112 -3.168,-4.8 -1.152,-2.592 -1.152,-5.856 0,-3.264 1.248,-6.912 0.192,-0.48 0.576,-0.48 0.384,0 0.672,0.288 0.288,0.192 0.096,0.672 -0.576,1.536 -0.768,3.072 -0.288,1.536 -0.288,2.976 0,4.8 2.88,8.448 0.576,-6.048 3.072,-12.192 2.592,-6.24 6.816,-11.904 4.224,-5.664 9.984,-9.984 -7.68,-2.208 -12.864,-5.856 -5.088,-3.648 -7.584,-7.968 -2.592,-4.416 -2.592,-8.544 0,-5.664 4.704,-9.792 4.8,-4.128 14.304,-4.128 5.664,0 12.864,1.824 3.168,0.864 6.336,1.92 3.168,1.056 6.144,2.4 4.128,-3.648 9.12,-6.912 4.992,-3.36 10.848,-6.144 6.144,-2.976 11.424,-4.32 5.28,-1.344 9.696,-1.344 8.256,0 12.768,4.128 4.512,4.032 4.512,10.272 0,4.416 -2.496,9.6 -2.4,5.184 -7.68,10.464 -4.8,4.8 -10.176,8.064 -5.376,3.264 -11.04,5.28 3.072,4.512 3.072,10.272 0,1.44 -0.192,2.88 -0.192,1.44 -0.576,2.976 4.32,-3.456 8.256,-7.488 4.032,-4.128 7.104,-8.736 1.44,-2.112 2.592,-4.128 1.248,-2.112 2.496,-3.936 0.864,-1.632 1.536,-3.264 0.768,-1.632 1.44,-3.168 0.288,-0.864 0.672,-0.864 0.288,0 0.384,0.384 0.096,0.384 -0.096,0.864 l -0.288,0.672 q 6.24,-8.64 12,-13.44 5.76,-4.8 11.04,-4.8 1.536,0 2.784,0.384 0.288,0.096 0.288,0.384 0,0.768 -0.672,0.576 -0.864,-0.288 -1.824,-0.288 -3.552,0 -7.584,3.456 -4.032,3.36 -8.352,9.408 -4.224,6.048 -8.448,13.92 -4.128,7.872 -8.064,16.8 -4.128,9.504 -9.792,18.528 -5.568,9.12 -12.768,16.416 -7.104,7.392 -15.84,11.712 -8.736,4.32 -19.104,4.32 z m 38.784,-65.376 q 5.952,-2.016 11.424,-5.28 5.568,-3.36 10.56,-8.256 4.32,-4.32 6.336,-8.928 2.112,-4.608 2.112,-8.736 0,-5.76 -3.936,-9.696 -3.84,-3.936 -11.04,-3.936 -4.32,0 -9.696,1.728 -5.376,1.632 -11.808,5.472 -4.224,2.496 -8.064,5.664 -3.744,3.072 -7.104,6.624 5.952,2.976 10.368,6.336 4.416,3.36 5.856,6.336 0.192,0.288 0.192,0.48 0,0.192 0,0.384 0,0.768 -0.576,0.768 -0.576,0 -1.056,-0.768 -1.44,-2.976 -5.76,-6.144 -4.32,-3.264 -10.176,-6.144 -4.224,4.704 -7.488,9.888 -3.168,5.088 -5.184,10.176 3.648,-1.344 7.68,-2.112 4.128,-0.768 8.448,-0.768 6.816,0 11.424,1.92 4.704,1.92 7.488,4.992 z m -44.544,0.576 q 1.92,-6.624 6.24,-13.536 4.32,-6.912 11.136,-13.344 -2.784,-1.152 -5.76,-2.112 -2.88,-1.056 -5.76,-1.728 -3.84,-1.056 -7.104,-1.44 -3.264,-0.48 -6.048,-0.48 -7.968,0 -11.904,3.264 -3.84,3.168 -3.84,7.68 0,3.84 2.592,8.064 2.688,4.128 7.776,7.776 5.184,3.552 12.672,5.856 z m 22.08,2.976 q 5.088,0 10.08,-0.672 5.088,-0.672 10.08,-2.112 -2.4,-2.784 -6.528,-4.512 -4.128,-1.728 -10.08,-1.728 -4.608,0 -8.832,0.96 -4.224,0.96 -8.064,2.592 -0.384,1.056 -0.768,2.112 -0.288,1.056 -0.48,2.112 3.552,0.576 7.2,0.96 3.648,0.288 7.392,0.288 z m -0.192,25.248 q 6.336,0 13.44,-3.264 2.4,-1.056 4.704,-2.4 2.304,-1.44 4.608,-2.976 1.44,-4.224 1.44,-8.256 0,-5.472 -2.688,-9.6 -5.472,1.632 -11.136,2.4 -5.568,0.672 -11.232,0.672 -7.104,0 -14.016,-0.864 -0.384,1.728 -0.576,3.36 -0.192,1.632 -0.192,3.264 0,9.312 4.416,13.536 4.512,4.128 11.232,4.128 z m -18.912,17.088 q 9.696,0 18.432,-3.072 8.064,-2.88 13.728,-8.352 5.76,-5.472 8.448,-11.712 -3.552,2.4 -7.488,4.32 -9.696,4.608 -18.144,4.608 -5.472,0 -9.888,-2.208 -4.416,-2.112 -7.008,-6.72 -2.496,-4.608 -2.496,-11.904 0,-1.728 0.192,-3.456 0.192,-1.824 0.576,-3.648 -5.856,4.512 -10.176,10.464 -4.224,5.856 -6.624,12.384 -2.304,6.432 -2.496,12.672 3.936,3.264 10.08,4.896 6.144,1.728 12.864,1.728 z m 2.88,18.336 q 6.432,0 12.096,-2.688 5.664,-2.592 10.656,-7.104 4.992,-4.416 9.312,-10.08 4.32,-5.664 7.968,-11.808 3.744,-6.048 6.912,-11.904 3.168,-5.952 5.76,-10.752 l 0.672,-1.248 q -5.472,6.432 -12,11.52 -1.632,4.8 -5.088,9.408 -3.456,4.704 -8.544,8.448 -5.088,3.84 -11.712,6.144 -4.416,1.536 -9.408,2.304 -4.896,0.864 -9.792,0.864 -6.528,0 -12.48,-1.44 -5.952,-1.44 -10.176,-4.416 0.192,6.24 2.976,11.424 2.784,5.184 8.448,8.256 5.664,3.072 14.4,3.072 z m 70.84791,-34.368 q -3.168,0 -4.416,-1.728 -1.152,-1.824 -1.152,-4.416 0,-2.784 0.96,-5.856 0.96,-3.168 1.824,-5.088 2.592,-6.048 6.528,-9.408 3.936,-3.456 7.2,-3.456 2.784,0 3.744,1.632 1.056,1.632 1.056,4.032 0,2.496 -0.864,5.28 -0.768,2.688 -1.728,4.608 -1.152,2.4 -2.4,4.512 -1.248,2.112 -2.592,3.84 0.864,0.768 2.112,0.768 1.92,0 3.744,-1.824 1.92,-1.824 3.552,-4.512 1.728,-2.688 2.976,-5.184 1.344,-2.496 2.016,-3.744 0.192,-0.288 0.384,-0.288 0.192,0 0.384,0.384 0.192,0.288 0,0.672 -1.536,3.264 -3.84,7.296 -2.208,4.032 -4.992,6.624 -1.152,1.056 -2.208,1.536 -1.056,0.48 -1.92,0.48 -1.632,0 -2.88,-1.248 -1.824,2.4 -3.744,3.744 -1.92,1.344 -3.744,1.344 z m 1.152,-1.44 q 1.056,0 2.496,-1.248 1.44,-1.344 2.976,-3.456 0,0 -0.576,-0.96 -0.48,-0.96 -0.48,-2.88 0,-0.768 0.096,-1.632 0.096,-0.96 0.48,-1.92 0.672,-1.92 1.632,-2.784 0.96,-0.96 1.92,-0.96 0.864,0 1.344,0.864 0.576,0.768 0.288,2.304 1.344,-2.976 2.208,-5.76 0.864,-2.88 0.864,-4.992 0,-1.632 -0.672,-2.592 -0.576,-1.056 -2.112,-1.056 -1.344,0 -3.072,1.728 -1.728,1.632 -3.552,4.416 -1.728,2.688 -3.264,5.856 -1.44,3.168 -2.4,6.24 -0.864,2.976 -0.864,5.184 0,1.632 0.576,2.688 0.672,0.96 2.112,0.96 z m 38.49592,1.44 q -4.032,0 -4.032,-4.512 0,-1.728 0.672,-4.128 0.672,-2.4 2.112,-5.28 0.768,-1.632 2.016,-3.84 1.344,-2.304 2.4,-4.512 1.056,-2.208 1.056,-3.456 0,-1.248 -1.344,-1.248 -1.824,0 -3.84,2.016 -1.92,1.92 -3.84,4.992 -1.92,3.072 -3.648,6.432 -1.728,3.36 -2.976,6.336 -1.248,2.88 -1.824,4.416 -0.576,1.44 -1.632,1.824 -1.056,0.384 -2.304,0.384 -1.152,0 -2.208,0.384 1.344,-3.072 2.208,-4.992 0.864,-1.92 1.824,-3.84 0.96,-2.016 2.304,-5.376 0.768,-1.728 1.728,-3.936 0.96,-2.304 1.632,-4.416 0.768,-2.208 0.768,-3.456 0,-1.44 -0.96,-1.44 -1.152,0 -2.304,1.44 -1.152,1.44 -2.112,3.264 -0.864,1.728 -1.44,2.784 -1.44,2.784 -2.88,5.472 -1.44,2.688 -3.264,5.184 h -0.096 q -0.288,0 -0.672,-0.192 -0.288,-0.192 -0.192,-0.288 1.632,-2.592 3.072,-5.184 1.536,-2.592 2.784,-5.184 1.056,-2.016 2.304,-4.224 1.248,-2.304 2.88,-3.84 1.632,-1.536 3.744,-1.536 0.96,0 2.208,0.48 1.344,0.576 1.344,2.592 0,1.056 -0.384,2.592 -0.384,1.536 -1.056,3.456 2.496,-3.552 5.28,-6.048 2.784,-2.592 5.088,-2.592 3.648,0 3.648,3.456 0,2.112 -1.248,5.184 -0.384,1.056 -1.44,3.36 -0.96,2.208 -2.016,4.992 -0.96,2.688 -1.728,5.184 -0.768,2.496 -0.768,4.128 0,1.728 1.056,1.728 0.672,0 1.728,-0.576 1.152,-0.672 2.688,-2.112 2.784,-2.496 5.184,-6.336 2.496,-3.84 5.856,-10.272 0,-0.192 0.192,-0.192 0.288,0 0.576,0.288 0.288,0.288 0.096,0.48 -3.456,6.72 -6.336,11.232 -2.784,4.416 -5.664,6.72 -2.784,2.208 -6.24,2.208 z m 17.85596,0 q -3.168,0 -4.416,-1.824 -1.152,-1.824 -1.152,-4.416 0,-2.784 0.864,-5.856 0.96,-3.072 1.92,-4.992 3.36,-7.008 9.408,-10.368 6.144,-3.36 12.576,-2.88 2.208,-4.512 4.608,-9.408 2.496,-4.992 4.608,-9.408 2.208,-4.512 3.744,-7.68 1.632,-3.264 2.112,-4.32 1.632,-0.384 3.552,-0.864 1.92,-0.576 3.456,-1.248 -0.96,1.632 -3.072,5.088 -2.016,3.456 -4.704,8.16 -2.592,4.608 -5.472,9.888 -2.88,5.28 -5.568,10.656 v 0.192 q 0,0.384 -0.48,0.672 -2.4,4.896 -4.416,9.408 -1.92,4.512 -3.168,8.256 -1.152,3.648 -1.152,6.048 0,2.688 1.824,2.688 1.056,0 2.4,-0.864 1.344,-0.864 2.592,-2.112 3.072,-3.072 5.28,-6.912 2.304,-3.84 4.32,-7.68 0,-0.192 0.192,-0.192 0.672,0 0.672,0.768 0,0 -0.48,0.864 -0.48,0.864 -0.576,0.96 -1.728,3.36 -3.552,6.432 -1.824,3.072 -4.416,5.856 -1.44,1.536 -3.744,3.264 -2.208,1.728 -4.416,1.728 -2.208,0 -3.072,-1.728 -0.768,-1.728 -0.768,-3.84 0,-1.344 0.192,-2.592 0.192,-1.248 0.48,-2.208 -0.672,1.728 -2.4,4.224 -1.632,2.496 -3.744,4.416 -2.016,1.824 -4.032,1.824 z m 1.152,-1.44 q 1.344,0 2.976,-1.824 1.728,-1.824 3.36,-4.416 1.728,-2.688 3.072,-5.184 1.344,-2.592 2.016,-3.936 l 6.048,-12.288 q -4.704,0.096 -8.448,2.592 -3.648,2.496 -6.24,6.336 -2.592,3.744 -3.936,7.68 -1.344,3.936 -1.344,6.816 0,1.92 0.576,3.072 0.672,1.152 1.92,1.152 z"
       id="text32"
       aria-label="Ankit Gond" />
  </g>
</svg>
