<?xml version="1.0" encoding="UTF-8" standalone="no"?>
<!-- Created with Inkscape (http://www.inkscape.org/) -->

<svg
   width="144.28796"
   height="115.104"
   viewBox="0 0 144.28796 115.104"
   version="1.1"
   id="svg1"
   xmlns="http://www.w3.org/2000/svg"
   xmlns:svg="http://www.w3.org/2000/svg">
  <defs
     id="defs1" />
  <g
     id="layer1"
     transform="translate(-640.52633,-422.07995)">
    <path
       d="m 656.55832,520.67197 q -4.224,0 -7.872,-1.152 -3.648,-1.152 -5.856,-3.84 -2.304,-2.688 -2.304,-7.104 0,-1.536 0.288,-3.072 0,-0.576 0.672,-0.576 0.576,0 0.576,0.48 0,0.576 0,1.056 -0.096,0.48 -0.096,0.96 0,4.128 2.4,6.72 2.304,2.592 6.048,3.744 3.744,1.248 7.968,1.248 3.072,0 6.144,-0.672 3.072,-0.576 5.664,-1.632 5.664,-2.4 10.56,-6.624 4.896,-4.128 9.312,-9.024 -0.672,0.096 -1.44,0.096 -0.672,0.096 -1.44,0.096 -2.496,0 -4.896,-0.48 -2.304,-0.48 -4.416,-1.344 -7.008,-3.168 -10.176,-8.64 -3.072,-5.568 -3.072,-12.096 0,-4.512 1.248,-9.216 1.344,-4.8 3.744,-9.216 -0.576,-2.592 -0.576,-5.376 0,-5.664 2.496,-11.424 2.496,-5.856 7.296,-10.656 4.896,-4.896 12.096,-7.872 7.2,-2.976 16.704,-2.976 7.488,0 13.728,2.496 6.24,2.4 10.368,7.104 4.128,4.608 5.184,11.328 4.992,-5.472 9.6,-9.792 4.608,-4.32 8.736,-6.72 3.648,-2.112 7.008,-3.072 3.36,-0.96 6.336,-0.96 5.184,0 8.448,2.688 3.36,2.592 3.36,6.912 0,3.936 -3.36,9.024 -3.36,4.992 -11.232,10.368 -3.648,2.496 -7.584,4.416 -3.84,1.92 -7.872,3.264 l -2.4,3.936 q -0.864,1.344 -2.4,4.128 -1.536,2.688 -3.36,6.144 -1.728,3.456 -3.36,7.2 -1.632,3.648 -2.688,7.008 -1.056,3.36 -1.056,5.856 0,2.784 1.728,3.84 0.672,0.384 1.728,0.384 2.304,0 5.088,-2.112 2.88,-2.208 5.76,-6.048 2.976,-3.936 5.472,-9.12 0.288,-0.48 0.672,-0.48 0.672,0 0.384,0.768 -2.496,5.184 -5.472,9.408 -2.88,4.224 -6.144,6.816 -3.168,2.496 -6.624,2.496 -3.84,0 -5.664,-2.4 -1.728,-2.496 -1.728,-6.432 0.096,-7.392 3.648,-14.784 3.648,-7.392 8.928,-14.4 -2.304,0.48 -4.608,0.96 -2.208,0.384 -4.608,0.768 -0.768,2.016 -1.824,4.032 -1.056,2.016 -2.4,4.224 -7.968,13.056 -17.28,20.16 -9.216,7.008 -17.76,9.024 -5.088,5.28 -11.04,9.984 -5.952,4.8 -12.672,7.488 -3.072,1.248 -6.816,1.92 -3.648,0.768 -7.296,0.768 z m 54.72,-59.424 11.136,-0.48 q 3.264,-4.128 6.432,-8.064 3.168,-3.936 6.24,-7.488 -0.672,-6.912 -4.608,-11.616 -3.84,-4.704 -9.984,-7.104 -6.048,-2.496 -13.344,-2.496 -9.024,0 -15.84,3.072 -6.816,3.072 -11.424,8.064 -4.512,4.992 -6.72,10.848 -2.112,5.76 -1.728,11.232 5.568,-8.928 12.576,-12.864 7.104,-4.032 13.344,-4.032 4.224,0 7.68,1.728 3.456,1.632 5.472,4.704 2.016,3.072 2.016,7.488 0,3.36 -1.248,7.008 z m 23.712,-1.536 q 5.376,-0.576 10.368,-1.728 6.144,-7.584 12.864,-14.304 6.816,-6.816 11.808,-12.384 0.48,-0.48 0.768,-0.48 0.48,0 0.48,0.672 0,0.384 -0.384,0.672 -3.936,3.84 -8.928,10.272 -4.896,6.432 -9.696,13.728 3.264,-1.056 6.336,-2.4 3.168,-1.44 6.048,-3.264 7.776,-4.896 11.136,-9.504 3.456,-4.608 3.456,-8.064 0,-3.264 -2.4,-5.088 -2.4,-1.92 -6.528,-1.92 -2.784,0 -6.24,1.056 -3.456,0.96 -7.296,3.168 -4.416,2.688 -9.408,7.392 -4.896,4.704 -10.08,10.656 -0.096,5.28 -2.304,11.52 z m -56.064,11.424 q 1.536,-3.072 5.856,-5.664 4.416,-2.592 12.096,-3.36 6.336,-0.576 13.152,-0.864 1.248,-3.456 1.248,-6.72 0,-5.76 -3.84,-9.024 -3.744,-3.36 -9.408,-3.36 -4.032,0 -8.64,2.016 -4.608,1.92 -9.12,6.048 -4.512,4.128 -8.256,10.848 0.768,3.072 2.496,5.664 1.728,2.592 4.416,4.416 z m 48.192,-10.656 5.664,-0.48 q 0.96,-2.496 1.44,-4.8 0.576,-2.304 0.768,-4.416 -1.92,2.304 -3.936,4.8 -1.92,2.4 -3.936,4.896 z m -30.912,38.016 q 7.68,-2.304 15.84,-8.928 8.16,-6.624 15.264,-18.432 1.248,-2.016 2.208,-3.936 1.056,-1.92 1.92,-3.744 l -7.392,0.864 q -5.856,7.296 -11.808,14.88 -5.856,7.488 -11.616,14.304 -1.056,1.248 -2.208,2.496 -1.056,1.248 -2.208,2.496 z m -8.832,1.44 q 2.016,0 4.128,-0.288 1.728,-2.016 3.36,-4.032 1.728,-2.016 3.264,-3.936 5.184,-6.24 10.464,-13.152 5.376,-6.912 10.656,-13.728 -2.4,0.192 -4.896,0.384 -2.496,0.192 -4.992,0.384 -1.824,3.36 -5.088,6.72 -3.168,3.264 -7.968,6.336 -2.88,1.824 -5.376,2.592 -2.496,0.768 -4.704,0.768 -3.84,0 -6.048,-2.112 -2.208,-2.112 -2.208,-5.088 0,-1.344 0.384,-2.496 -2.688,-1.536 -4.608,-3.744 -1.92,-2.208 -3.072,-4.896 -1.824,3.936 -2.976,8.064 -1.056,4.128 -1.056,8.064 0,5.856 2.688,10.848 2.784,4.896 9.12,7.584 4.032,1.728 8.928,1.728 z m -1.152,-19.2 q 1.728,0 4.032,-0.768 2.4,-0.768 5.28,-2.496 4.512,-2.784 7.488,-5.76 3.072,-2.976 4.896,-5.952 l -6.528,0.576 q -7.008,0.672 -11.328,2.688 -4.32,2.016 -6.336,4.32 3.456,0.96 7.872,0.864 1.056,0 1.056,0.48 0,0.48 -0.96,0.48 -2.4,0.096 -4.608,-0.096 -2.112,-0.288 -4.032,-0.864 -1.152,1.728 -1.152,3.168 0,1.44 1.056,2.4 1.152,0.96 3.264,0.96 z m 56.92798,56.448 q -1.536,0 -2.4,-1.056 -0.96,-0.96 -0.96,-2.976 0,-1.632 0.768,-3.84 0.672,-2.208 2.208,-4.992 1.92,-3.456 4.512,-7.104 2.592,-3.648 5.472,-6.912 2.88,-3.264 5.376,-5.664 2.592,-2.4 4.32,-3.264 0.384,-0.96 1.056,-3.072 0.768,-2.112 1.536,-4.416 0.864,-2.4 1.44,-4.032 0.576,-1.632 0.576,-1.632 -1.344,2.4 -3.072,4.992 -1.632,2.496 -3.552,4.32 -1.92,1.728 -4.128,1.728 -3.264,0 -4.512,-1.824 -1.152,-1.92 -1.152,-4.512 0,-2.784 0.96,-5.856 0.96,-3.072 1.824,-4.896 3.072,-6.432 8.544,-9.792 5.568,-3.456 11.424,-3.456 0.768,0 1.536,0 0.864,0 1.632,0.192 1.92,0.288 1.92,0.48 0,0.192 -1.44,0.384 -1.344,0.192 -2.016,0.192 -4.704,0 -8.448,2.496 -3.648,2.496 -6.24,6.336 -2.592,3.84 -4.032,7.872 -1.344,3.936 -1.344,6.816 0,1.824 0.576,2.976 0.672,1.152 1.92,1.152 1.344,0 3.072,-1.824 1.728,-1.824 3.36,-4.416 1.632,-2.688 2.976,-5.184 1.344,-2.592 2.016,-3.936 l 4.128,-8.64 q 1.632,-0.384 3.648,-0.96 2.016,-0.576 3.552,-1.248 -1.536,1.728 -3.36,4.8 -1.824,2.976 -3.168,5.952 -1.44,3.36 -2.496,6.144 -0.96,2.688 -1.92,5.28 -0.864,2.592 -2.016,5.76 4.608,-2.88 7.296,-5.664 2.784,-2.88 4.8,-6.24 2.112,-3.36 4.416,-7.68 0.192,-0.288 0.48,-0.288 0.288,0 0.48,0.288 0.192,0.192 0,0.576 -2.592,4.8 -4.896,8.352 -2.208,3.552 -5.28,6.432 -2.976,2.88 -7.872,5.856 -1.632,4.32 -3.84,9.696 -2.208,5.376 -4.8,10.464 -2.496,5.184 -5.28,9.024 -2.4,3.36 -4.992,5.088 -2.688,1.728 -4.608,1.728 z m 0.288,-1.344 q 1.152,0 2.976,-1.728 1.728,-1.728 3.936,-5.568 1.824,-3.264 3.648,-7.2 1.92,-3.84 3.552,-7.584 1.632,-3.744 2.784,-6.528 1.152,-2.784 1.536,-3.744 -2.016,1.152 -4.416,3.552 -2.4,2.4 -4.896,5.472 -2.496,3.072 -4.608,6.432 -2.208,3.36 -3.744,6.432 -1.248,2.4 -1.728,4.416 -0.576,2.016 -0.576,3.36 0,2.688 1.536,2.688 z"
       id="text32"
       style="font-size:96px;font-family:'Mea Culpa';-inkscape-font-specification:'Mea Culpa';text-align:center;text-anchor:middle"
       aria-label="Ag" />
  </g>
</svg>